<svg xmlns="http://www.w3.org/2000/svg" xmlns:xlink="http://www.w3.org/1999/xlink"><symbol viewBox="0 0 240.823 240.823" id="back"><path d="M57.633 129.007L165.93 237.268c4.752 4.74 12.451 4.74 17.215 0 4.752-4.74 4.752-12.439 0-17.179l-99.707-99.671 99.695-99.671c4.752-4.74 4.752-12.439 0-17.191-4.752-4.74-12.463-4.74-17.215 0L57.621 111.816c-4.679 4.691-4.679 12.511.012 17.191z"/></symbol><symbol viewBox="0 0 20 20" id="close"><rect x="5.414" y="4" width="15" height="2" rx="1" transform="rotate(45 5.414 4)"/><rect x="4" y="14.607" width="15" height="2" rx="1" transform="rotate(-45 4 14.607)"/></symbol><symbol viewBox="0 0 20 20" id="menu"><rect x="2" y="3" width="16" height="2" rx="1"/><rect x="2" y="9" width="16" height="2" rx="1"/><rect x="2" y="15" width="16" height="2" rx="1"/></symbol></svg>